<?xml version="1.0" encoding="utf-8"?>
<!-- Generator: Adobe Illustrator 19.0.0, SVG Export Plug-In . SVG Version: 6.00 Build 0)  -->
<svg version="1.1" id="圖層_1" xmlns="http://www.w3.org/2000/svg" xmlns:xlink="http://www.w3.org/1999/xlink" x="0px" y="0px"
	 viewBox="0 0 384 160" style="enable-background:new 0 0 384 160;" xml:space="preserve">
<style type="text/css">
	.st0{fill:#75716C;}
	.st1{fill:#F8B747;}
</style>
<path id="XMLID_68_" class="st0" d="M54.3,82.3c1.3-0.8,1.3-2.7,0-3.4L8,52.1c-1.3-0.8-3,0.2-3,1.7v53.5c0,0,0,0,0,0v33.3l24-14.3
	V96.9L54.3,82.3z"/>
<path id="XMLID_67_" class="st0" d="M53,19.1L53,19.1H15v30h21.3c18.7,0,33.8,13,33.8,29.1c0,16.1-15.1,29.1-33.8,29.1
	c-0.8,0-1.7-0.1-2.5-0.1c6,2,12.4,3.1,19.2,3.1c29.2,0,52.9-20.4,52.9-45.6C106,39.5,82.3,19.1,53,19.1"/>
<path id="XMLID_66_" class="st1" d="M0,34.1c0-8.3,6.7-15,15-15c8.3,0,15,6.7,15,15c0,8.3-6.7,15-15,15C6.7,49.1,0,42.4,0,34.1"/>
<polygon id="XMLID_65_" class="st0" points="133.7,110.8 133.7,119.4 131.1,119.4 131.1,110.8 128,110.8 128,108.5 136.8,108.5 
	136.8,110.8 "/>
<path id="XMLID_148_" class="st0" d="M142.1,115.6c0-0.2,0-0.5-0.1-0.7c-0.1-0.2-0.2-0.4-0.4-0.6c-0.2-0.2-0.3-0.3-0.6-0.4
	c-0.2-0.1-0.5-0.2-0.8-0.2c-0.3,0-0.6,0.1-0.8,0.2c-0.2,0.1-0.4,0.3-0.6,0.4c-0.1,0.2-0.3,0.4-0.3,0.6c-0.1,0.2-0.1,0.5-0.1,0.7
	c0,0.2,0,0.5,0.1,0.7c0.1,0.2,0.2,0.4,0.3,0.6c0.2,0.2,0.3,0.3,0.6,0.5c0.2,0.1,0.5,0.2,0.8,0.2c0.3,0,0.6-0.1,0.8-0.2
	c0.2-0.1,0.4-0.3,0.6-0.5c0.2-0.2,0.3-0.4,0.3-0.6C142.1,116.1,142.1,115.8,142.1,115.6 M144.5,115.6c0,0.6-0.1,1.2-0.3,1.7
	c-0.2,0.5-0.5,0.9-0.9,1.3c-0.4,0.4-0.8,0.6-1.4,0.8c-0.5,0.2-1.1,0.3-1.7,0.3c-0.6,0-1.1-0.1-1.6-0.3c-0.5-0.2-1-0.5-1.4-0.8
	c-0.4-0.4-0.7-0.8-0.9-1.3c-0.2-0.5-0.3-1.1-0.3-1.7c0-0.6,0.1-1.2,0.3-1.7c0.2-0.5,0.5-0.9,0.9-1.3c0.4-0.4,0.8-0.6,1.4-0.8
	c0.5-0.2,1.1-0.3,1.6-0.3c0.6,0,1.1,0.1,1.7,0.3c0.5,0.2,1,0.5,1.4,0.8c0.4,0.3,0.7,0.8,0.9,1.3
	C144.4,114.4,144.5,114.9,144.5,115.6"/>
<path id="XMLID_145_" class="st0" d="M152.3,115.6c0-0.2,0-0.5-0.1-0.7c-0.1-0.2-0.2-0.4-0.3-0.6c-0.2-0.2-0.3-0.3-0.6-0.4
	c-0.2-0.1-0.5-0.2-0.8-0.2c-0.3,0-0.5,0.1-0.8,0.2c-0.2,0.1-0.4,0.3-0.6,0.4c-0.2,0.2-0.3,0.4-0.4,0.6c-0.1,0.2-0.1,0.5-0.1,0.7
	c0,0.2,0,0.5,0.1,0.7c0.1,0.2,0.2,0.4,0.4,0.6c0.2,0.2,0.4,0.3,0.6,0.4c0.2,0.1,0.5,0.2,0.8,0.2c0.3,0,0.6-0.1,0.8-0.2
	c0.2-0.1,0.4-0.3,0.6-0.4c0.1-0.2,0.3-0.4,0.3-0.6C152.2,116.1,152.3,115.8,152.3,115.6 M154.7,115.6c0,0.5-0.1,1.1-0.2,1.5
	c-0.2,0.5-0.4,0.9-0.7,1.3c-0.3,0.4-0.7,0.7-1.1,0.9c-0.5,0.2-1,0.3-1.5,0.3c-0.5,0-0.9-0.1-1.3-0.3c-0.4-0.2-0.8-0.4-1-0.8h0v4.6
	h-2.5v-11.4h2.4v0.9h0c0.2-0.3,0.6-0.6,1-0.8c0.4-0.2,0.9-0.3,1.5-0.3c0.6,0,1.1,0.1,1.5,0.3c0.5,0.2,0.8,0.5,1.2,0.9
	c0.3,0.4,0.6,0.8,0.7,1.3C154.6,114.5,154.7,115,154.7,115.6"/>
<path id="XMLID_142_" class="st0" d="M166,111.9c0-0.3-0.1-0.5-0.2-0.6c-0.1-0.2-0.2-0.3-0.4-0.4c-0.2-0.1-0.4-0.2-0.6-0.2
	c-0.2,0-0.5,0-0.7,0h-1.2v2.6h1.1c0.2,0,0.5,0,0.7-0.1c0.2,0,0.4-0.1,0.6-0.2c0.2-0.1,0.3-0.2,0.4-0.4
	C165.9,112.4,166,112.1,166,111.9 M168.6,111.9c0,0.6-0.1,1.2-0.4,1.6c-0.2,0.4-0.6,0.8-1,1.1c-0.4,0.3-0.9,0.5-1.4,0.6
	c-0.5,0.1-1.1,0.2-1.6,0.2h-1.3v4.1h-2.6v-10.9h4c0.6,0,1.2,0.1,1.7,0.2c0.5,0.1,1,0.3,1.4,0.6c0.4,0.3,0.7,0.6,0.9,1
	C168.5,110.7,168.6,111.2,168.6,111.9"/>
<path id="XMLID_139_" class="st0" d="M175,115.6c0-0.2,0-0.5-0.1-0.7c-0.1-0.2-0.2-0.4-0.4-0.6c-0.2-0.2-0.3-0.3-0.6-0.4
	c-0.2-0.1-0.5-0.2-0.8-0.2c-0.3,0-0.6,0.1-0.8,0.2c-0.2,0.1-0.4,0.3-0.6,0.4c-0.1,0.2-0.3,0.4-0.3,0.6c-0.1,0.2-0.1,0.5-0.1,0.7
	c0,0.2,0,0.5,0.1,0.7c0.1,0.2,0.2,0.4,0.3,0.6c0.2,0.2,0.3,0.3,0.6,0.5c0.2,0.1,0.5,0.2,0.8,0.2c0.3,0,0.6-0.1,0.8-0.2
	c0.2-0.1,0.4-0.3,0.6-0.5c0.2-0.2,0.3-0.4,0.4-0.6C175,116.1,175,115.8,175,115.6 M177.4,115.6c0,0.6-0.1,1.2-0.3,1.7
	c-0.2,0.5-0.5,0.9-0.9,1.3c-0.4,0.4-0.8,0.6-1.4,0.8c-0.5,0.2-1.1,0.3-1.7,0.3c-0.6,0-1.1-0.1-1.6-0.3c-0.5-0.2-1-0.5-1.4-0.8
	c-0.4-0.4-0.7-0.8-0.9-1.3c-0.2-0.5-0.3-1.1-0.3-1.7c0-0.6,0.1-1.2,0.3-1.7c0.2-0.5,0.5-0.9,0.9-1.3c0.4-0.4,0.8-0.6,1.4-0.8
	c0.5-0.2,1.1-0.3,1.6-0.3c0.6,0,1.1,0.1,1.7,0.3c0.5,0.2,1,0.5,1.4,0.8c0.4,0.3,0.7,0.8,0.9,1.3
	C177.3,114.4,177.4,114.9,177.4,115.6"/>
<polygon id="XMLID_56_" class="st0" points="188.9,119.4 186.3,119.4 184.8,114.6 184.8,114.6 183.3,119.4 180.7,119.4 178.1,111.7 
	180.8,111.7 182.1,116.6 182.2,116.6 183.5,111.7 186.1,111.7 187.5,116.6 187.6,116.6 188.9,111.7 191.5,111.7 "/>
<path id="XMLID_135_" class="st0" d="M198.2,115.6c0-0.2,0-0.5-0.1-0.7c-0.1-0.2-0.2-0.4-0.4-0.6c-0.2-0.2-0.4-0.3-0.6-0.4
	c-0.2-0.1-0.5-0.2-0.8-0.2c-0.3,0-0.6,0.1-0.8,0.2c-0.2,0.1-0.4,0.3-0.6,0.4c-0.2,0.2-0.3,0.4-0.3,0.6c-0.1,0.2-0.1,0.5-0.1,0.7
	c0,0.2,0,0.5,0.1,0.7c0.1,0.2,0.2,0.5,0.3,0.6c0.2,0.2,0.3,0.3,0.6,0.4c0.2,0.1,0.5,0.2,0.8,0.2c0.3,0,0.5-0.1,0.8-0.2
	c0.2-0.1,0.4-0.3,0.6-0.4c0.2-0.2,0.3-0.4,0.4-0.6C198.2,116.1,198.2,115.8,198.2,115.6 M198.3,119.4v-1h0c-0.3,0.4-0.6,0.7-1.1,0.9
	c-0.5,0.2-0.9,0.3-1.5,0.3c-0.6,0-1.1-0.1-1.5-0.3c-0.5-0.2-0.8-0.5-1.2-0.9c-0.3-0.4-0.6-0.8-0.7-1.3c-0.2-0.5-0.2-1-0.2-1.5
	c0-0.5,0.1-1,0.3-1.5c0.2-0.5,0.4-0.9,0.7-1.3c0.3-0.4,0.7-0.7,1.1-0.9c0.4-0.2,1-0.3,1.5-0.3c0.6,0,1,0.1,1.4,0.3
	c0.4,0.2,0.7,0.5,0.9,0.7h0v-4.8h2.5v11.7H198.3z"/>
<path id="XMLID_132_" class="st0" d="M208,114.7c0-0.4-0.1-0.7-0.4-1c-0.3-0.3-0.6-0.4-1.1-0.4c-0.2,0-0.5,0-0.7,0.1
	c-0.2,0.1-0.4,0.2-0.5,0.3c-0.2,0.1-0.3,0.3-0.4,0.5c-0.1,0.2-0.1,0.4-0.2,0.6H208z M210.3,115.7v0.3c0,0.1,0,0.2,0,0.3h-5.6
	c0,0.2,0.1,0.4,0.2,0.6c0.1,0.2,0.2,0.3,0.4,0.5c0.2,0.1,0.4,0.2,0.6,0.3c0.2,0.1,0.4,0.1,0.7,0.1c0.4,0,0.7-0.1,1-0.2
	c0.3-0.1,0.5-0.3,0.7-0.6l1.8,1.1c-0.4,0.5-0.8,0.9-1.4,1.2c-0.6,0.3-1.3,0.4-2.1,0.4c-0.6,0-1.1-0.1-1.6-0.3
	c-0.5-0.2-1-0.4-1.4-0.8c-0.4-0.3-0.7-0.8-0.9-1.3c-0.2-0.5-0.3-1.1-0.3-1.7c0-0.6,0.1-1.2,0.3-1.7c0.2-0.5,0.5-0.9,0.9-1.3
	c0.4-0.4,0.8-0.6,1.3-0.8c0.5-0.2,1.1-0.3,1.6-0.3c0.6,0,1.1,0.1,1.6,0.3c0.5,0.2,0.9,0.5,1.2,0.8c0.3,0.4,0.6,0.8,0.8,1.3
	C210.2,114.4,210.3,115,210.3,115.7"/>
<path id="XMLID_51_" class="st0" d="M216.9,113.8c-0.1,0-0.2-0.1-0.3-0.1c-0.1,0-0.2,0-0.3,0c-0.3,0-0.6,0.1-0.9,0.2
	c-0.2,0.1-0.4,0.3-0.6,0.4c-0.1,0.2-0.2,0.4-0.3,0.6c-0.1,0.2-0.1,0.4-0.1,0.5v3.9h-2.5v-7.7h2.4v1.1h0c0.2-0.4,0.5-0.7,0.8-1
	c0.4-0.3,0.8-0.4,1.3-0.4c0.1,0,0.2,0,0.3,0c0.1,0,0.2,0,0.2,0L216.9,113.8z"/>
<polygon id="XMLID_50_" class="st0" points="226.3,110.8 226.3,119.4 223.7,119.4 223.7,110.8 220.6,110.8 220.6,108.5 229.4,108.5 
	229.4,110.8 "/>
<path id="XMLID_127_" class="st0" d="M234.3,114.7c0-0.4-0.1-0.7-0.4-1c-0.3-0.3-0.6-0.4-1.1-0.4c-0.2,0-0.5,0-0.7,0.1
	c-0.2,0.1-0.4,0.2-0.5,0.3c-0.2,0.1-0.3,0.3-0.4,0.5c-0.1,0.2-0.1,0.4-0.2,0.6H234.3z M236.6,115.7v0.3c0,0.1,0,0.2,0,0.3H231
	c0,0.2,0.1,0.4,0.2,0.6c0.1,0.2,0.2,0.3,0.4,0.5c0.2,0.1,0.4,0.2,0.6,0.3c0.2,0.1,0.4,0.1,0.7,0.1c0.4,0,0.7-0.1,1-0.2
	c0.3-0.1,0.5-0.3,0.7-0.6l1.8,1.1c-0.4,0.5-0.8,0.9-1.4,1.2c-0.6,0.3-1.3,0.4-2.1,0.4c-0.6,0-1.1-0.1-1.6-0.3
	c-0.5-0.2-1-0.4-1.4-0.8c-0.4-0.3-0.7-0.8-0.9-1.3c-0.2-0.5-0.3-1.1-0.3-1.7c0-0.6,0.1-1.2,0.3-1.7c0.2-0.5,0.5-0.9,0.9-1.3
	c0.4-0.4,0.8-0.6,1.3-0.8c0.5-0.2,1-0.3,1.6-0.3c0.6,0,1.1,0.1,1.6,0.3c0.5,0.2,0.9,0.5,1.2,0.8c0.3,0.4,0.6,0.8,0.8,1.3
	C236.5,114.4,236.6,115,236.6,115.7"/>
<path id="XMLID_47_" class="st0" d="M243.5,114.2c-0.1-0.2-0.3-0.3-0.6-0.4c-0.2-0.1-0.5-0.2-0.8-0.2c-0.3,0-0.5,0.1-0.7,0.2
	c-0.2,0.1-0.4,0.3-0.6,0.4c-0.2,0.2-0.3,0.4-0.4,0.6c-0.1,0.2-0.1,0.5-0.1,0.8c0,0.3,0,0.5,0.1,0.8c0.1,0.2,0.2,0.4,0.4,0.6
	c0.2,0.2,0.4,0.3,0.6,0.4c0.2,0.1,0.5,0.2,0.7,0.2c0.3,0,0.5,0,0.8-0.1c0.3-0.1,0.5-0.2,0.6-0.4l1.4,1.7c-0.3,0.3-0.7,0.6-1.2,0.7
	c-0.5,0.2-1,0.3-1.6,0.3c-0.6,0-1.2-0.1-1.7-0.3c-0.5-0.2-1-0.5-1.4-0.8c-0.4-0.4-0.7-0.8-0.9-1.3c-0.2-0.5-0.3-1.1-0.3-1.7
	c0-0.6,0.1-1.2,0.3-1.7c0.2-0.5,0.5-0.9,0.9-1.3c0.4-0.4,0.8-0.6,1.4-0.8c0.5-0.2,1.1-0.3,1.7-0.3c0.3,0,0.6,0,0.8,0.1
	c0.3,0,0.5,0.1,0.8,0.2c0.3,0.1,0.5,0.2,0.7,0.3c0.2,0.1,0.4,0.3,0.5,0.4L243.5,114.2z"/>
<path id="XMLID_46_" class="st0" d="M251.1,119.4v-4.2c0-0.2,0-0.4,0-0.6c0-0.2-0.1-0.4-0.2-0.5c-0.1-0.1-0.2-0.3-0.3-0.4
	c-0.1-0.1-0.3-0.1-0.6-0.1c-0.4,0-0.8,0.2-1,0.5c-0.2,0.3-0.4,0.7-0.4,1.2v4.2H246v-11.7h2.5v5h0c0.2-0.3,0.5-0.6,0.8-0.8
	c0.4-0.2,0.8-0.4,1.4-0.4c0.5,0,1,0.1,1.3,0.3c0.4,0.2,0.6,0.4,0.9,0.7c0.2,0.3,0.4,0.6,0.5,1c0.1,0.4,0.1,0.8,0.1,1.1v4.8H251.1z"
	/>
<path id="XMLID_45_" class="st0" d="M260.6,119.4v-4.2c0-0.2,0-0.4-0.1-0.6c0-0.2-0.1-0.4-0.2-0.5c-0.1-0.1-0.2-0.3-0.3-0.4
	c-0.1-0.1-0.3-0.1-0.6-0.1c-0.2,0-0.4,0-0.6,0.1c-0.2,0.1-0.3,0.2-0.4,0.4c-0.1,0.2-0.2,0.3-0.3,0.5c-0.1,0.2-0.1,0.4-0.1,0.6v4.2
	h-2.5v-7.7h2.5v1.1h0c0.1-0.2,0.2-0.3,0.4-0.5c0.1-0.2,0.3-0.3,0.5-0.4c0.2-0.1,0.4-0.2,0.7-0.3c0.2-0.1,0.5-0.1,0.8-0.1
	c0.5,0,1,0.1,1.3,0.3c0.4,0.2,0.7,0.4,0.9,0.7c0.2,0.3,0.4,0.6,0.5,1c0.1,0.4,0.1,0.8,0.1,1.1v4.8H260.6z"/>
<path id="XMLID_121_" class="st0" d="M270.8,115.6c0-0.2,0-0.5-0.1-0.7c-0.1-0.2-0.2-0.4-0.4-0.6c-0.2-0.2-0.3-0.3-0.6-0.4
	c-0.2-0.1-0.5-0.2-0.8-0.2c-0.3,0-0.6,0.1-0.8,0.2c-0.2,0.1-0.4,0.3-0.6,0.4c-0.1,0.2-0.3,0.4-0.3,0.6c-0.1,0.2-0.1,0.5-0.1,0.7
	c0,0.2,0,0.5,0.1,0.7c0.1,0.2,0.2,0.4,0.3,0.6c0.2,0.2,0.3,0.3,0.6,0.5c0.2,0.1,0.5,0.2,0.8,0.2c0.3,0,0.6-0.1,0.8-0.2
	c0.2-0.1,0.4-0.3,0.6-0.5c0.2-0.2,0.3-0.4,0.3-0.6C270.7,116.1,270.8,115.8,270.8,115.6 M273.2,115.6c0,0.6-0.1,1.2-0.3,1.7
	c-0.2,0.5-0.5,0.9-0.9,1.3c-0.4,0.4-0.8,0.6-1.4,0.8c-0.5,0.2-1.1,0.3-1.7,0.3c-0.6,0-1.1-0.1-1.6-0.3c-0.5-0.2-1-0.5-1.4-0.8
	c-0.4-0.4-0.7-0.8-0.9-1.3c-0.2-0.5-0.3-1.1-0.3-1.7c0-0.6,0.1-1.2,0.3-1.7c0.2-0.5,0.5-0.9,0.9-1.3c0.4-0.4,0.8-0.6,1.4-0.8
	c0.5-0.2,1.1-0.3,1.6-0.3c0.6,0,1.1,0.1,1.7,0.3c0.5,0.2,1,0.5,1.4,0.8c0.4,0.3,0.7,0.8,0.9,1.3
	C273.1,114.4,273.2,114.9,273.2,115.6"/>
<rect id="XMLID_42_" x="274.8" y="107.8" class="st0" width="2.6" height="11.7"/>
<path id="XMLID_117_" class="st0" d="M285.1,115.6c0-0.2,0-0.5-0.1-0.7c-0.1-0.2-0.2-0.4-0.4-0.6c-0.2-0.2-0.3-0.3-0.6-0.4
	c-0.2-0.1-0.5-0.2-0.8-0.2c-0.3,0-0.6,0.1-0.8,0.2c-0.2,0.1-0.4,0.3-0.6,0.4c-0.2,0.2-0.3,0.4-0.3,0.6c-0.1,0.2-0.1,0.5-0.1,0.7
	c0,0.2,0,0.5,0.1,0.7c0.1,0.2,0.2,0.4,0.3,0.6c0.2,0.2,0.3,0.3,0.6,0.5c0.2,0.1,0.5,0.2,0.8,0.2c0.3,0,0.6-0.1,0.8-0.2
	c0.2-0.1,0.4-0.3,0.6-0.5c0.2-0.2,0.3-0.4,0.3-0.6C285.1,116.1,285.1,115.8,285.1,115.6 M287.6,115.6c0,0.6-0.1,1.2-0.3,1.7
	c-0.2,0.5-0.5,0.9-0.9,1.3c-0.4,0.4-0.8,0.6-1.4,0.8c-0.5,0.2-1.1,0.3-1.7,0.3c-0.6,0-1.1-0.1-1.6-0.3c-0.5-0.2-1-0.5-1.4-0.8
	c-0.4-0.4-0.7-0.8-0.9-1.3c-0.2-0.5-0.3-1.1-0.3-1.7c0-0.6,0.1-1.2,0.3-1.7c0.2-0.5,0.5-0.9,0.9-1.3c0.4-0.4,0.8-0.6,1.4-0.8
	c0.5-0.2,1.1-0.3,1.6-0.3c0.6,0,1.1,0.1,1.7,0.3c0.5,0.2,1,0.5,1.4,0.8c0.4,0.3,0.7,0.8,0.9,1.3
	C287.5,114.4,287.6,114.9,287.6,115.6"/>
<path id="XMLID_114_" class="st0" d="M294.9,115.5c0-0.3,0-0.5-0.1-0.7c-0.1-0.2-0.2-0.4-0.4-0.6c-0.2-0.2-0.4-0.3-0.6-0.4
	c-0.2-0.1-0.5-0.2-0.8-0.2s-0.5,0.1-0.8,0.2c-0.2,0.1-0.4,0.2-0.6,0.4c-0.2,0.2-0.3,0.4-0.4,0.6c-0.1,0.2-0.1,0.5-0.1,0.8
	c0,0.3,0,0.5,0.1,0.7c0.1,0.2,0.2,0.4,0.4,0.6c0.2,0.2,0.3,0.3,0.6,0.4c0.2,0.1,0.5,0.2,0.8,0.2s0.5-0.1,0.8-0.2
	c0.2-0.1,0.4-0.3,0.6-0.4c0.2-0.2,0.3-0.4,0.4-0.6C294.9,116.1,294.9,115.8,294.9,115.5 M297.3,118.7c0,0.8-0.1,1.4-0.3,2
	c-0.2,0.6-0.5,1-0.9,1.4c-0.4,0.4-0.9,0.6-1.4,0.8c-0.6,0.2-1.2,0.3-1.9,0.3c-0.7,0-1.4-0.1-2.1-0.3c-0.7-0.2-1.3-0.5-1.9-0.9
	l1.3-1.8c0.4,0.3,0.8,0.6,1.2,0.7c0.4,0.2,0.9,0.2,1.3,0.2c0.7,0,1.3-0.2,1.6-0.6c0.4-0.4,0.5-0.9,0.5-1.6v-0.5h0
	c-0.2,0.3-0.6,0.6-1,0.7c-0.4,0.2-0.9,0.3-1.4,0.3c-0.6,0-1.1-0.1-1.6-0.3c-0.5-0.2-0.8-0.5-1.2-0.9c-0.3-0.4-0.6-0.8-0.7-1.3
	c-0.2-0.5-0.2-1-0.2-1.5s0.1-1,0.2-1.5c0.2-0.5,0.4-0.9,0.7-1.3c0.3-0.4,0.7-0.7,1.2-0.9c0.5-0.2,1-0.3,1.5-0.3
	c0.5,0,0.9,0.1,1.4,0.3c0.4,0.2,0.8,0.5,1.1,0.9h0v-1h2.4V118.7z"/>
<path id="XMLID_111_" class="st0" d="M299.4,111.7h2.5v7.7h-2.5V111.7z M302.1,109.3c0,0.2,0,0.4-0.1,0.5c-0.1,0.2-0.2,0.3-0.3,0.4
	c-0.1,0.1-0.3,0.2-0.5,0.3c-0.2,0.1-0.4,0.1-0.6,0.1c-0.4,0-0.8-0.1-1-0.4c-0.3-0.3-0.4-0.6-0.4-1c0-0.2,0-0.4,0.1-0.5
	c0.1-0.2,0.2-0.3,0.3-0.4c0.1-0.1,0.3-0.2,0.5-0.3c0.2-0.1,0.4-0.1,0.6-0.1c0.2,0,0.4,0,0.6,0.1c0.2,0.1,0.3,0.2,0.5,0.3
	c0.1,0.1,0.2,0.3,0.3,0.4C302.1,108.9,302.1,109.1,302.1,109.3"/>
<path id="XMLID_108_" class="st0" d="M309.2,114.7c0-0.4-0.1-0.7-0.4-1c-0.3-0.3-0.6-0.4-1.1-0.4c-0.3,0-0.5,0-0.7,0.1
	c-0.2,0.1-0.4,0.2-0.5,0.3c-0.2,0.1-0.3,0.3-0.4,0.5c-0.1,0.2-0.1,0.4-0.2,0.6H309.2z M311.6,115.7v0.3c0,0.1,0,0.2,0,0.3H306
	c0,0.2,0.1,0.4,0.2,0.6c0.1,0.2,0.2,0.3,0.4,0.5c0.2,0.1,0.4,0.2,0.6,0.3c0.2,0.1,0.4,0.1,0.7,0.1c0.4,0,0.7-0.1,1-0.2
	c0.3-0.1,0.5-0.3,0.7-0.6l1.8,1.1c-0.4,0.5-0.8,0.9-1.4,1.2c-0.6,0.3-1.3,0.4-2.1,0.4c-0.6,0-1.1-0.1-1.6-0.3
	c-0.5-0.2-1-0.4-1.4-0.8c-0.4-0.3-0.7-0.8-0.9-1.3c-0.2-0.5-0.3-1.1-0.3-1.7c0-0.6,0.1-1.2,0.3-1.7c0.2-0.5,0.5-0.9,0.9-1.3
	c0.4-0.4,0.8-0.6,1.3-0.8c0.5-0.2,1-0.3,1.6-0.3c0.6,0,1.1,0.1,1.6,0.3c0.5,0.2,0.9,0.5,1.2,0.8c0.3,0.4,0.6,0.8,0.8,1.3
	C311.5,114.4,311.6,115,311.6,115.7"/>
<path id="XMLID_33_" class="st0" d="M317.7,114c-0.2-0.2-0.4-0.4-0.7-0.5c-0.3-0.1-0.6-0.2-0.9-0.2c-0.2,0-0.5,0-0.7,0.1
	c-0.2,0.1-0.3,0.3-0.3,0.5c0,0.2,0.1,0.4,0.3,0.5c0.2,0.1,0.6,0.2,1.1,0.3c0.3,0.1,0.6,0.1,0.9,0.3c0.3,0.1,0.6,0.3,0.8,0.4
	c0.2,0.2,0.4,0.4,0.6,0.7c0.1,0.3,0.2,0.6,0.2,1c0,0.5-0.1,0.9-0.3,1.2c-0.2,0.3-0.4,0.6-0.8,0.8c-0.3,0.2-0.7,0.4-1.1,0.4
	c-0.4,0.1-0.8,0.1-1.2,0.1c-0.6,0-1.2-0.1-1.8-0.3c-0.6-0.2-1.1-0.5-1.5-0.9l1.4-1.5c0.2,0.2,0.5,0.5,0.8,0.6c0.3,0.2,0.7,0.2,1,0.2
	c0.2,0,0.4,0,0.6-0.1c0.2-0.1,0.3-0.3,0.3-0.5c0-0.2-0.1-0.4-0.4-0.5c-0.3-0.1-0.6-0.2-1.2-0.4c-0.3-0.1-0.5-0.1-0.8-0.2
	c-0.3-0.1-0.5-0.2-0.7-0.4c-0.2-0.2-0.4-0.4-0.5-0.7c-0.1-0.3-0.2-0.6-0.2-0.9c0-0.5,0.1-0.9,0.3-1.2c0.2-0.3,0.4-0.6,0.8-0.8
	c0.3-0.2,0.7-0.4,1-0.5c0.4-0.1,0.7-0.1,1.1-0.1c0.6,0,1.1,0.1,1.7,0.3c0.6,0.2,1,0.5,1.4,0.8L317.7,114z"/>
<path id="XMLID_32_" class="st0" d="M332.3,119.2c-0.7,0.3-1.5,0.5-2.5,0.5c-0.8,0-1.6-0.1-2.3-0.4c-0.7-0.3-1.3-0.7-1.9-1.2
	c-0.5-0.5-0.9-1.1-1.2-1.8c-0.3-0.7-0.4-1.5-0.4-2.3c0-0.9,0.2-1.7,0.5-2.4c0.3-0.7,0.7-1.3,1.3-1.8c0.5-0.5,1.2-0.9,1.9-1.2
	c0.7-0.3,1.5-0.4,2.3-0.4c0.8,0,1.5,0.1,2.3,0.4s1.4,0.7,1.8,1.2l-1.8,1.8c-0.2-0.3-0.6-0.6-1-0.8c-0.4-0.2-0.8-0.2-1.2-0.2
	c-0.5,0-0.9,0.1-1.3,0.3c-0.4,0.2-0.7,0.4-1,0.7c-0.3,0.3-0.5,0.7-0.6,1.1c-0.2,0.4-0.2,0.9-0.2,1.3c0,0.5,0.1,0.9,0.2,1.4
	c0.2,0.4,0.4,0.8,0.6,1.1c0.3,0.3,0.6,0.5,1,0.7c0.4,0.2,0.8,0.2,1.3,0.2c0.5,0,1-0.1,1.4-0.3c0.4-0.2,0.7-0.5,0.9-0.8l1.8,1.7
	C333.6,118.5,333,118.9,332.3,119.2"/>
<path id="XMLID_103_" class="st0" d="M340.6,115.6c0-0.2,0-0.5-0.1-0.7c-0.1-0.2-0.2-0.4-0.4-0.6c-0.2-0.2-0.3-0.3-0.6-0.4
	c-0.2-0.1-0.5-0.2-0.8-0.2c-0.3,0-0.6,0.1-0.8,0.2c-0.2,0.1-0.4,0.3-0.6,0.4c-0.2,0.2-0.3,0.4-0.3,0.6c-0.1,0.2-0.1,0.5-0.1,0.7
	c0,0.2,0,0.5,0.1,0.7c0.1,0.2,0.2,0.4,0.3,0.6c0.2,0.2,0.3,0.3,0.6,0.5c0.2,0.1,0.5,0.2,0.8,0.2c0.3,0,0.6-0.1,0.8-0.2
	c0.2-0.1,0.4-0.3,0.6-0.5c0.2-0.2,0.3-0.4,0.3-0.6C340.5,116.1,340.6,115.8,340.6,115.6 M343,115.6c0,0.6-0.1,1.2-0.3,1.7
	c-0.2,0.5-0.5,0.9-0.9,1.3c-0.4,0.4-0.8,0.6-1.4,0.8c-0.5,0.2-1.1,0.3-1.7,0.3c-0.6,0-1.1-0.1-1.6-0.3c-0.5-0.2-1-0.5-1.4-0.8
	c-0.4-0.4-0.7-0.8-0.9-1.3c-0.2-0.5-0.3-1.1-0.3-1.7c0-0.6,0.1-1.2,0.3-1.7c0.2-0.5,0.5-0.9,0.9-1.3c0.4-0.4,0.8-0.6,1.4-0.8
	c0.5-0.2,1.1-0.3,1.6-0.3c0.6,0,1.1,0.1,1.7,0.3c0.5,0.2,1,0.5,1.4,0.8c0.4,0.3,0.7,0.8,0.9,1.3C342.9,114.4,343,114.9,343,115.6"/>
<path id="XMLID_29_" class="st0" d="M347.3,118.1c0,0.4-0.2,0.8-0.5,1.1c-0.3,0.3-0.7,0.4-1.1,0.4c-0.2,0-0.4,0-0.6-0.1
	c-0.2-0.1-0.4-0.2-0.5-0.3c-0.1-0.1-0.3-0.3-0.3-0.5c-0.1-0.2-0.1-0.4-0.1-0.6c0-0.2,0-0.4,0.1-0.6c0.1-0.2,0.2-0.3,0.3-0.5
	c0.1-0.1,0.3-0.2,0.5-0.3c0.2-0.1,0.4-0.1,0.6-0.1c0.4,0,0.8,0.1,1.1,0.4C347.2,117.3,347.3,117.6,347.3,118.1"/>
<polygon id="XMLID_28_" class="st0" points="350.5,121.4 348.4,121.4 349.6,117 352,117 "/>
<polygon id="XMLID_27_" class="st0" points="357.3,119.4 357.3,108.5 359.9,108.5 359.9,117.1 364.1,117.1 364.1,119.4 "/>
<path id="XMLID_26_" class="st0" d="M368,113.6v2.9c0,0.4,0.1,0.6,0.2,0.8c0.1,0.2,0.4,0.3,0.7,0.3c0.1,0,0.3,0,0.4,0
	c0.1,0,0.3,0,0.4-0.1l0,1.9c-0.2,0.1-0.4,0.1-0.7,0.2c-0.3,0-0.5,0.1-0.8,0.1c-0.5,0-1-0.1-1.3-0.2c-0.4-0.1-0.6-0.3-0.8-0.6
	c-0.2-0.2-0.4-0.5-0.5-0.9c-0.1-0.3-0.1-0.7-0.1-1.1v-3.3h-1.2v-1.9h1.2v-2h2.5v2h1.8v1.9H368z"/>
<path id="XMLID_96_" class="st0" d="M376.7,115.6c0-0.2,0-0.5-0.1-0.7c-0.1-0.2-0.2-0.4-0.4-0.6c-0.2-0.2-0.3-0.3-0.6-0.4
	c-0.2-0.1-0.5-0.2-0.8-0.2c-0.3,0-0.6,0.1-0.8,0.2c-0.2,0.1-0.4,0.3-0.6,0.4c-0.2,0.2-0.3,0.4-0.3,0.6c-0.1,0.2-0.1,0.5-0.1,0.7
	c0,0.2,0,0.5,0.1,0.7c0.1,0.2,0.2,0.5,0.3,0.6c0.2,0.2,0.3,0.3,0.6,0.4c0.2,0.1,0.5,0.2,0.8,0.2c0.3,0,0.5-0.1,0.8-0.2
	c0.2-0.1,0.4-0.3,0.6-0.4c0.2-0.2,0.3-0.4,0.4-0.6C376.7,116.1,376.7,115.8,376.7,115.6 M376.8,119.4v-1h0c-0.3,0.4-0.6,0.7-1.1,0.9
	c-0.5,0.2-0.9,0.3-1.5,0.3c-0.6,0-1.1-0.1-1.5-0.3c-0.5-0.2-0.8-0.5-1.2-0.9c-0.3-0.4-0.6-0.8-0.7-1.3c-0.2-0.5-0.2-1-0.2-1.5
	c0-0.5,0.1-1,0.3-1.5c0.2-0.5,0.4-0.9,0.7-1.3c0.3-0.4,0.7-0.7,1.1-0.9c0.4-0.2,1-0.3,1.5-0.3c0.6,0,1,0.1,1.4,0.3
	c0.4,0.2,0.7,0.5,0.9,0.7h0v-4.8h2.5v11.7H376.8z"/>
<path id="XMLID_23_" class="st0" d="M384.1,118.1c0,0.4-0.2,0.8-0.5,1.1c-0.3,0.3-0.7,0.4-1.1,0.4c-0.2,0-0.4,0-0.6-0.1
	c-0.2-0.1-0.4-0.2-0.5-0.3c-0.1-0.1-0.3-0.3-0.3-0.5c-0.1-0.2-0.1-0.4-0.1-0.6c0-0.2,0-0.4,0.1-0.6c0.1-0.2,0.2-0.3,0.3-0.5
	c0.1-0.1,0.3-0.2,0.5-0.3c0.2-0.1,0.4-0.1,0.6-0.1c0.4,0,0.8,0.1,1.1,0.4C383.9,117.3,384.1,117.6,384.1,118.1"/>
<path id="XMLID_87_" class="st0" d="M179.8,74.2c2.1,5.1,4.1,11.6,4.7,15.8l-6.3,2.1c-0.1-1.1-0.4-2.5-0.7-3.9
	c-11.7,1.8-13.9,2.2-15.4,3c-0.4-1.3-1.5-4.5-2.2-6.3c1-0.3,1.9-1.6,2.9-3.5c0.8-1.9,3.7-9.1,5-15.8l6.7,1.9
	c-1.6,5.3-3.9,10.9-6.4,15.7l7.8-1c-0.6-2.2-1.3-4.3-2.1-6.2L179.8,74.2z M159.4,54.7H153V42.4h10.9c-0.6-1.5-1.3-3-1.8-4.4l6.4-1.9
	c1,1.9,2.1,4.2,2.9,6.2H184v12h-6.7v-5.8h-18V54.7z M184.7,58.1v6.5h-20c-1.9,11.4-5,21.3-9.9,28.3c-1.2-1.1-4.4-3-6-3.9
	c4.5-5.8,7.4-14.5,9.1-24.4h-5.7v-6.5h6.6c0.3-2.1,0.5-4.4,0.7-6.7l6.8,0.7c-0.2,2.1-0.5,4-0.7,6H184.7z M144.1,80
	c0.8-2.7,1.7-7.1,2.1-10.2l5,1.4c-1.1,3.5-2.2,7.6-3.1,10.1L144.1,80z M148.5,51.7c-2.2-1.9-5-4.1-7.8-5.8c-1.3,2.1-2.8,4-4.4,5.8
	H148.5z M134.7,70.4c1,3.2,1.9,7.6,2.2,10.3l-4.5,1.4c-0.2-2.8-1-7.2-1.9-10.5L134.7,70.4z M150.3,86.6c-7,1.6-14.3,3.3-19.9,4.5
	l-1.3-6.4c2.4-0.4,5.4-0.9,8.7-1.5V68.2H130v-6.1h7.9v-4.4h-4.5V55c-1,0.9-1.9,1.8-2.9,2.6c-0.4-1.6-1.6-5.6-2.4-7.4
	c4.4-3.3,9-8.5,11.7-14l5.1,2.4c-0.4,0.7-0.7,1.5-1.1,2.2c3.3,1.9,6.4,4.2,8.3,6l-2,6.3c-0.3-0.4-0.7-0.7-1.1-1v5.6h-5.4v4.4h7.1
	v6.1h-7.1v14l6.3-1.2L150.3,86.6z"/>
<path id="XMLID_78_" class="st0" d="M240.8,50c-1.6-1-4.5-2.7-6.7-3.8l2.2-2.8h-2.1v-4.9h15.8v17.2c0,2.4-0.4,3.4-2,4.1
	c-1.5,0.7-3.9,0.7-7,0.7c-0.2-1.3-0.6-2.8-1.1-4.1c1.8,0.1,3.6,0.1,4.2,0.1c0.6,0,0.8-0.1,0.8-0.7V43.4h-7.2c2.1,0.9,4.4,2.1,5.6,3
	L240.8,50z M244.7,52.2c-2.9,2.1-5.7,4-8.5,5.8l-2.7-4.3c2.5-1.1,6.2-3.1,10-5.1L244.7,52.2z M226.7,86h8v-2.9h-8V86z M234.7,75.6
	h-8v2.8h8V75.6z M234.7,68.3h-8v2.7h8V68.3z M251.5,91h-24.8V93h-6.3v-19c-0.7,0.7-1.3,1.3-2,1.9c-0.7-1.2-2.8-3.8-3.9-5
	c3.5-2.8,6.8-7.3,8.6-11.7l1.1,0.4c-0.2-1.1-0.6-2.2-1-3.3c1.7,0.1,3.6,0.1,4.1,0.1c0.7,0,0.8-0.1,0.8-0.7V43.4h-7.4
	c1.9,1.1,4.4,2.7,5.7,3.7l-2.7,3c1-0.4,2-0.9,3.1-1.4l1,3.6c-2.8,1.8-5.6,3.6-8.2,5.2l-2.7-4.4c1.8-0.7,4-1.8,6.5-2.9
	c-1.3-1.1-3.9-2.8-5.7-4l2.6-2.8h-2.5v-1c-1.4,4.7-2.9,10.1-4.3,13.6l-4.1-1c1.3-3.9,2.7-10,3.3-14.3l5.1,1v-3.2h15.5v17.1
	c0,2.2-0.4,3.1-2,3.8c-1.3,0.5-3.2,0.5-5.9,0.5l3.3,1c-0.4,0.8-0.7,1.6-1.1,2.4h6.2c-0.4-1-0.9-2.1-1.3-3l5.4-1.8
	c0.8,1.5,1.7,3.3,2.3,4.8h10.5v5h-10v2.7h8.9v4.7h-8.9v2.8h8.9v4.7h-8.9V86h10.8V91z M198,56c-0.4-3.8-1.4-9.6-2.4-14l4.6-1.1
	c1.1,4.5,2.2,10.1,2.7,13.9L198,56z M218,76.8c0.4,1.7,1,4.1,1.6,5.4c-9.1,4.8-10.9,6-11.9,7.1c-0.4-1.3-1.5-3.7-2.4-4.8
	c1-0.6,2-1.8,2-4.4V63.9h-2.1c-0.2,12.3-1.2,22.1-6.2,28.4c-0.8-1.6-2.7-3.7-4.2-4.8c3.8-5.1,4.5-13.2,4.7-23.6h-4.4v-6.7h8.2V37.5
	h5.9v19.8h8.5v6.7H213v15.4L218,76.8z"/>
<path id="XMLID_72_" class="st0" d="M293,71.6h15.5v-2.8H293V71.6z M308.4,79.2v-2.9H293c-0.1,1-0.1,1.9-0.2,2.9H308.4z M315.1,86.5
	c0,3-0.5,4.6-2.7,5.5c-2,0.9-4.8,1-8.6,1c-0.2-1.7-1.1-4.1-1.9-5.7c2.2,0.1,4.8,0.1,5.5,0.1c0.8,0,1-0.2,1-0.9v-2.5h-16.4
	c-0.7,3.5-2.1,7-4.4,9.6c-1-1.3-3.7-3.7-5-4.5c3.5-4.2,3.9-9.9,3.9-14.6V63.5h28.6V86.5z M264.5,54.6c-0.4-3.5-1.5-8.9-2.6-12.9
	l5-1.2c1.1,4.1,2.4,9.4,2.9,12.8L264.5,54.6z M318,55.9v5.1h-34.3v-5.1h13.4v-2.7h-11v-4.8h11v-2.4h-12.5v-2.3
	c-1.6,4-3.3,8.3-4.5,11.1l-4-1.5v3.2h6.5v6.7H276v4.2l2.5-1.8c1.2,1.4,5.3,7.3,6.3,8.8l-4.5,5.2c-0.9-2.4-2.8-6.3-4.3-9.2V93h-6.3
	V73c-1.3,5.1-3.3,10.2-5.8,13.2c-0.6-2.1-1.9-5.3-3-7.4c2.4-3.1,4.7-8.6,5.6-13.2l3.2,1.1v-3.4H262v-6.7h7.7v-20h6.3v15.5
	c1.2-3.4,2.5-8.1,3.1-11.5l5.4,1.7v-1.3h12.5v-4.4h7v4.4h13.2v5.1H304v2.4h12v4.8h-12v2.7H318z"/>
<polygon id="XMLID_2_" class="st0" points="384,81.6 384,88.8 329,88.8 329,81.6 352.1,81.6 352.1,50.3 332.3,50.3 332.3,42.8 
	380.6,42.8 380.6,50.3 360.3,50.3 360.3,81.6 "/>
</svg>
